<?xml version="1.0" encoding="UTF-8" standalone="no"?>
<!-- Created with Inkscape (http://www.inkscape.org/) -->

<svg
   xmlns:dc="http://purl.org/dc/elements/1.1/"
   xmlns:cc="http://creativecommons.org/ns#"
   xmlns:rdf="http://www.w3.org/1999/02/22-rdf-syntax-ns#"
   xmlns:svg="http://www.w3.org/2000/svg"
   xmlns="http://www.w3.org/2000/svg"
   xmlns:sodipodi="http://sodipodi.sourceforge.net/DTD/sodipodi-0.dtd"
   xmlns:inkscape="http://www.inkscape.org/namespaces/inkscape"
   width="104.49406"
   height="104.49406"
   viewBox="0 0 104.49407 104.49407"
   id="svg5526"
   version="1.1"
   inkscape:version="0.91 r13725"
   sodipodi:docname="button_cancel_disabled.svg">
  <defs
     id="defs5528">
    <filter
       style="color-interpolation-filters:sRGB"
       id="filter5373-1-3-9-6"
       inkscape:label="Drop Shadow">
      <feFlood
         id="feFlood5375-7-8-3-5"
         flood-opacity="0.6"
         flood-color="rgb(0,0,0)"
         result="flood" />
      <feComposite
         id="feComposite5377-4-7-1-0"
         in2="SourceGraphic"
         in="flood"
         operator="in"
         result="composite1" />
      <feGaussianBlur
         id="feGaussianBlur5379-0-4-9-9"
         stdDeviation="3.4"
         result="blur" />
      <feOffset
         id="feOffset5381-9-2-8-0"
         dx="3"
         dy="3"
         result="offset" />
      <feComposite
         id="feComposite5383-4-7-6-0"
         in2="offset"
         in="SourceGraphic"
         operator="over"
         result="composite2" />
    </filter>
    <clipPath
       id="clipPath3993-0-4"
       clipPathUnits="userSpaceOnUse">
      <path
         inkscape:connector-curvature="0"
         id="path3995-2-8"
         d="M 0,650 780,650 780,0 0,0 0,650 Z" />
    </clipPath>
  </defs>
  <sodipodi:namedview
     id="base"
     pagecolor="#ffffff"
     bordercolor="#666666"
     borderopacity="1.0"
     inkscape:pageopacity="0.0"
     inkscape:pageshadow="2"
     inkscape:zoom="2.8"
     inkscape:cx="-33.998937"
     inkscape:cy="71.255639"
     inkscape:document-units="px"
     inkscape:current-layer="layer1"
     showgrid="false"
     fit-margin-top="0"
     fit-margin-left="0"
     fit-margin-right="0"
     fit-margin-bottom="0"
     inkscape:window-width="1060"
     inkscape:window-height="692"
     inkscape:window-x="679"
     inkscape:window-y="200"
     inkscape:window-maximized="0"
     units="px" />
  <metadata
     id="metadata5531">
    <rdf:RDF>
      <cc:Work
         rdf:about="">
        <dc:format>image/svg+xml</dc:format>
        <dc:type
           rdf:resource="http://purl.org/dc/dcmitype/StillImage" />
        <dc:title />
      </cc:Work>
    </rdf:RDF>
  </metadata>
  <g
     inkscape:label="Calque 1"
     inkscape:groupmode="layer"
     id="layer1"
     transform="translate(-447.75297,-614.40088)">
    <circle
       style="fill:#b3b3b3;fill-opacity:1;stroke:#000000;stroke-width:7.72553778;stroke-linejoin:round;stroke-miterlimit:4;stroke-dasharray:none;stroke-opacity:0;filter:url(#filter5373-1-3-9-6)"
       id="path4298-4-7-5-6"
       transform="matrix(0.77664495,0,0,0.77664495,908.32696,383.57372)"
       cx="-525.75757"
       cy="364.4834"
       r="56.060608" />
    <g
       id="g3989-8-1"
       transform="matrix(1.25,0,0,-1.25,-212.46085,1080.0787)">
      <g
         id="g3991-6-3"
         clip-path="url(#clipPath3993-0-4)">
        <g
           id="g3997-0-8"
           transform="translate(579.0879,330.7446)">
          <path
             inkscape:connector-curvature="0"
             d="m 0,0 12.91,12.908 c 0.627,0.627 0.627,1.655 0,2.281 l -6.84,6.842 c -0.627,0.625 -1.652,0.625 -2.279,0 l -12.91,-12.91 -12.91,12.91 c -0.627,0.625 -1.655,0.625 -2.282,0 l -6.839,-6.842 c -0.625,-0.626 -0.625,-1.654 0,-2.281 L -18.24,0 -31.148,-12.908 c -0.627,-0.627 -0.627,-1.655 0,-2.281 l 6.839,-6.842 c 0.627,-0.625 1.655,-0.625 2.282,0 l 12.908,12.91 12.908,-12.91 c 0.627,-0.625 1.652,-0.625 2.279,0 l 6.84,6.842 c 0.627,0.626 0.627,1.654 0,2.281 L 0,0 Z"
             style="fill:#333333;fill-opacity:1;fill-rule:nonzero;stroke:none"
             id="path3999-2-9" />
        </g>
      </g>
    </g>
  </g>
</svg>
